<?xml version="1.0" standalone="no"?>
<!DOCTYPE svg PUBLIC "-//W3C//DTD SVG 20010904//EN"
 "http://www.w3.org/TR/2001/REC-SVG-20010904/DTD/svg10.dtd">
<svg version="1.0" xmlns="http://www.w3.org/2000/svg"
 width="300.000000pt" height="151.000000pt" viewBox="0 0 300.000000 151.000000"
 preserveAspectRatio="xMidYMid meet">
<metadata>
Created by potrace 1.10, written by Peter Selinger 2001-2011
</metadata>
<g transform="translate(0.000000,151.000000) scale(0.100000,-0.100000)"
fill="#000000" stroke="none">
<path d="M2124 1287 c-22 -24 -104 -121 -183 -216 -134 -160 -161 -190 -161
-178 0 8 115 151 202 252 72 83 89 109 71 103 -9 -3 -179 -206 -250 -298 -48
-63 -52 -66 -137 -94 -48 -16 -85 -31 -82 -33 3 -3 35 5 72 16 36 12 68 21 69
19 5 -5 -221 -297 -261 -338 -33 -35 -44 -60 -24 -60 5 0 13 6 17 14 4 7 36
45 70 83 34 38 112 128 172 199 l111 129 77 26 c43 14 80 25 82 23 2 -2 -7
-17 -19 -35 -42 -58 -169 -283 -163 -289 3 -3 9 2 15 10 5 8 47 80 95 160 47
80 91 151 97 157 9 11 57 20 114 22 6 1 12 7 12 15 0 11 -10 12 -47 5 -25 -5
-48 -7 -51 -5 -2 3 18 42 45 88 83 141 127 233 120 251 -10 26 -21 21 -63 -26z
m46 5 c0 -7 -100 -191 -156 -286 -27 -45 -34 -50 -104 -72 -41 -13 -75 -22
-77 -21 -1 2 34 46 79 97 44 52 117 139 161 193 73 88 97 111 97 89z m-418
-449 c-66 -83 -99 -113 -45 -41 32 42 62 77 66 78 5 0 -5 -17 -21 -37z"/>
<path d="M2445 1011 c-50 -82 -92 -148 -94 -146 -2 2 -29 -13 -60 -35 -32 -21
-66 -40 -77 -42 -46 -8 9 77 71 109 l30 16 -20 -23 -20 -23 28 18 c15 9 27 24
27 32 0 37 -114 -34 -145 -90 -20 -37 -65 -64 -84 -52 -6 3 -11 24 -11 46 0
51 -15 50 -63 -3 -21 -24 -34 -34 -28 -22 5 11 17 26 25 34 18 14 22 35 6 25
-20 -12 -90 -124 -81 -129 5 -4 34 22 65 56 53 60 56 62 56 35 0 -60 34 -83
76 -53 11 8 30 12 45 9 31 -6 74 15 126 60 36 31 36 31 29 7 -16 -51 -18 -70
-9 -70 10 0 78 70 111 114 l22 29 0 -42 c0 -48 17 -60 57 -42 17 8 29 9 36 2
22 -22 95 27 124 83 14 27 14 31 0 41 -14 10 -14 12 1 22 14 10 14 12 2 12
-25 1 -65 -31 -108 -86 -66 -83 -107 -84 -96 -2 5 34 3 49 -5 49 -6 0 -11 -4
-11 -8 0 -13 -111 -144 -117 -138 -7 7 56 121 133 239 35 54 64 102 64 107 0
28 -24 -4 -105 -139z m218 -110 c-23 -30 -81 -67 -90 -57 -12 11 52 90 77 96
33 8 37 -6 13 -39z"/>
<path d="M884 1078 c-23 -24 -61 -68 -85 -98 -100 -125 -243 -290 -252 -290
-6 0 -3 8 5 18 8 9 37 44 63 77 27 33 86 104 133 158 47 54 82 101 78 104 -4
4 -12 0 -20 -8 -32 -35 -168 -202 -228 -279 l-66 -86 -93 -29 c-51 -16 -88
-30 -82 -32 6 -2 43 7 82 20 39 13 71 21 71 19 0 -2 -23 -33 -51 -69 -28 -36
-48 -67 -46 -70 3 -3 25 21 49 52 67 89 86 110 92 105 8 -8 -133 -171 -143
-166 -5 3 -42 -38 -83 -92 -42 -53 -85 -106 -97 -116 -21 -19 -28 -46 -12 -46
5 0 16 11 24 24 9 13 38 48 65 77 27 30 64 72 83 94 19 22 39 45 44 51 6 6 33
37 60 70 101 119 99 116 176 140 41 12 76 20 77 19 2 -2 -14 -30 -35 -62 -61
-91 -145 -242 -141 -254 2 -6 33 40 69 102 116 200 134 226 170 233 17 3 44 6
60 6 20 0 29 5 29 16 0 12 -6 15 -22 11 -13 -3 -38 -8 -56 -12 l-34 -7 25 39
c78 121 161 287 154 307 -9 24 -19 20 -63 -26z m42 -5 c-4 -10 -45 -87 -92
-170 -81 -145 -87 -153 -124 -163 -21 -6 -57 -17 -81 -25 -49 -18 -55 -28 71
120 47 55 114 135 149 178 59 73 91 98 77 60z"/>
<path d="M1133 908 c-39 -62 -99 -160 -133 -217 -47 -78 -70 -106 -94 -116
-39 -17 -56 -4 -56 41 0 46 -20 44 -65 -8 -20 -24 -32 -34 -26 -22 5 11 17 26
25 34 18 14 22 35 6 25 -6 -4 -28 -33 -50 -66 -50 -76 -28 -79 36 -4 26 30 51
55 56 55 4 0 8 -15 8 -34 0 -40 17 -57 45 -45 31 12 33 11 28 -13 -4 -23 -4
-23 11 -3 8 11 20 25 25 31 5 6 37 14 71 18 34 4 72 11 85 16 14 5 26 5 32 -1
13 -13 67 9 109 45 l32 26 -2 -32 c-1 -30 1 -33 26 -31 28 2 138 71 138 86 0
9 -7 6 -74 -40 -81 -55 -95 -43 -47 41 45 79 76 103 149 116 82 15 127 33 57
23 -27 -3 -65 -7 -82 -9 l-33 -2 19 27 c34 45 102 117 92 96 -5 -11 -28 -41
-51 -67 -23 -27 -37 -48 -32 -48 15 0 79 75 101 119 44 85 -8 47 -110 -79 -54
-68 -52 -66 -110 -74 -27 -4 -49 -12 -49 -18 0 -10 9 -9 70 7 21 6 23 5 10 -7
-8 -7 -26 -34 -39 -60 -14 -26 -28 -45 -31 -43 -3 2 -30 -12 -60 -31 -30 -19
-58 -34 -62 -34 -12 0 4 29 47 84 37 49 40 56 26 56 -4 0 -28 -28 -52 -62 -23
-35 -47 -66 -53 -70 -5 -3 -34 -9 -65 -13 -31 -3 -65 -8 -76 -11 -11 -3 5 10
35 29 80 50 110 76 110 95 0 14 -4 13 -18 -5 -18 -24 -134 -103 -141 -97 -2 2
3 12 11 21 9 10 55 83 104 163 48 80 98 159 111 176 13 17 23 34 23 37 0 22
-23 -6 -87 -105z"/>
<path d="M2727 935 c-28 -45 -45 -81 -39 -87 5 -5 14 2 22 17 18 33 93 95 128
105 23 7 25 9 9 15 -13 5 -32 -2 -65 -25 -27 -19 -40 -25 -32 -14 8 10 19 22
23 25 5 4 7 15 5 24 -2 13 -18 -7 -51 -60z"/>
</g>
</svg>
